<?xml version="1.0" encoding="UTF-8"?><svg xmlns="http://www.w3.org/2000/svg" xmlns:xlink="http://www.w3.org/1999/xlink" width="375pt" zoomAndPan="magnify" viewBox="0 0 375 374.999991" height="374.999991pt" preserveAspectRatio="xMidYMid meet" version="1.2"><defs><clipPath xml:id="clip1" id="clip1"><path d="M 6 24.84375 L 284 24.84375 L 284 277 L 6 277 Z M 6 24.84375 "/></clipPath></defs><g xml:id="surface1" id="surface1"><g clip-rule="nonzero" clip-path="url(#clip1)"><path style=" stroke:none;fill-rule:nonzero;fill:rgb(40.779114%,73.728943%,67.449951%);fill-opacity:1;" d="M 144.730469 24.84375 C 183.03125 24.84375 217.707031 40.40625 242.808594 65.558594 C 267.875 90.683594 283.394531 125.386719 283.433594 163.710938 L 267.519531 154.847656 C 266.917969 154.515625 266.308594 154.203125 265.691406 153.90625 C 263.300781 124.285156 250.320312 97.664062 230.550781 77.847656 C 208.589844 55.835938 178.246094 42.21875 144.730469 42.21875 C 111.21875 42.21875 80.875 55.835938 58.914062 77.847656 C 36.949219 99.859375 23.367188 130.265625 23.367188 163.859375 C 23.367188 197.449219 36.949219 227.859375 58.914062 249.867188 C 69.46875 260.445312 81.957031 269.082031 95.804688 275.203125 C 84.203125 276.53125 72.511719 276.800781 61.746094 275.253906 C 56.40625 271.25 51.363281 266.871094 46.65625 262.152344 C 21.558594 236.996094 6.03125 202.242188 6.03125 163.859375 C 6.03125 125.472656 21.558594 90.71875 46.65625 65.558594 C 71.757812 40.40625 106.433594 24.84375 144.730469 24.84375 Z M 176.589844 59.234375 L 153.648438 71.449219 L 144.445312 84.351562 L 130.378906 81.785156 L 110.304688 93.425781 L 87.445312 85.433594 L 74.515625 93.246094 L 59.746094 113.957031 L 64.269531 120 L 71.246094 119.710938 L 72.316406 127.289062 L 64.125 127.152344 L 60.6875 131.1875 L 48.203125 119.828125 L 43.175781 133.894531 L 55.554688 136.347656 L 54.628906 146.316406 L 46.398438 149.597656 L 47.394531 158.945312 L 52.152344 164.238281 L 40.601562 184.152344 L 42.84375 199.996094 L 55.265625 209.824219 L 79.804688 206.332031 L 86.0625 221.953125 L 88.453125 238.835938 L 100.382812 261.730469 L 110.042969 263.871094 L 121.121094 242.964844 L 119.949219 234.703125 L 126.085938 226.101562 L 123.644531 208.878906 L 136.332031 191.085938 L 124.0625 192.832031 L 110.449219 170 L 127.765625 183.699219 L 144.742188 171.441406 L 125.820312 162.894531 L 135.324219 161.539062 L 160.789062 166.699219 L 176.230469 174.183594 L 180.761719 182.347656 L 193.261719 177.542969 L 196.242188 201.738281 L 207.289062 197.679688 L 226.816406 205.792969 L 226.722656 200.59375 L 217.386719 191.796875 C 214.28125 188.871094 212.730469 185.152344 212.835938 180.878906 C 212.886719 178.839844 213.308594 176.945312 214.089844 175.222656 L 213.945312 173.890625 L 208.597656 164.46875 L 222.527344 158.96875 L 227.652344 145.589844 L 221.625 131.34375 L 224.96875 126.648438 L 237.238281 124.902344 L 242.601562 117.382812 C 237.214844 105.996094 229.875 95.507812 220.769531 86.382812 C 208.21875 73.808594 193.082031 64.589844 176.589844 59.234375 Z M 176.589844 59.234375 "/></g><path style=" stroke:none;fill-rule:nonzero;fill:rgb(40.779114%,73.728943%,67.449951%);fill-opacity:1;" d="M 332.605469 188.089844 C 341.394531 182.417969 362.527344 178.714844 368.660156 189.988281 C 374.792969 201.269531 360.230469 217.066406 350.71875 221.394531 L 330.101562 230.769531 L 326.019531 293.089844 C 325.625 299.121094 321.734375 304.023438 315.964844 305.773438 L 307.820312 308.238281 C 304.503906 309.242188 301.09375 307.160156 300.464844 303.742188 L 290.394531 248.824219 L 269.617188 258.277344 L 264.992188 284.0625 C 263.578125 291.964844 258.355469 293.914062 252.566406 296.269531 C 249.296875 297.597656 245.652344 295.742188 244.789062 292.3125 L 237.152344 261.832031 L 215.734375 238.882812 C 213.324219 236.296875 213.746094 232.222656 216.632812 230.1875 L 219.980469 227.828125 C 224.082031 224.9375 228.972656 224.402344 233.601562 226.335938 L 257.726562 236.414062 L 276.914062 224.03125 L 236.320312 185.792969 C 233.796875 183.414062 233.894531 179.40625 236.53125 177.160156 L 243.011719 171.636719 C 247.605469 167.722656 253.828125 167.105469 259.097656 170.039062 L 313.570312 200.375 Z M 225.910156 288.289062 C 146.699219 321.894531 9.195312 337.558594 0.410156 237.226562 C 0.34375 236.449219 0.300781 235.664062 0.253906 234.882812 C 18.332031 321.453125 133.335938 290.324219 207.382812 255.367188 L 221.429688 270.421875 Z M 225.910156 288.289062 "/></g></svg>